HIERARCHY
ROOT SpineBase
{
  OFFSET 0.000000 0.000000 0.000000
  CHANNELS 6 Xposition Yposition Zposition Zrotation Xrotation Yrotation
  JOINT SpineMid
  {
    OFFSET -0.000000 35.535819 0.000000
    CHANNELS 3 Zrotation Xrotation Yrotation
    JOINT SpineShoulder
    {
      OFFSET 0.752624 26.189426 -0.444804
      CHANNELS 3 Zrotation Xrotation Yrotation
      JOINT Neck
      {
        OFFSET 0.325349 8.597119 -0.529114
        CHANNELS 3 Zrotation Xrotation Yrotation
        JOINT Head
        {
          OFFSET -2.007292 12.847452 6.065992
          CHANNELS 3 Zrotation Xrotation Yrotation
          End Site
          {
            OFFSET 0 0 0
          }
        }
      }
      JOINT ShoulderLeft
      {
        OFFSET -6.507636 -6.619344 -16.440335
        CHANNELS 3 Zrotation Xrotation Yrotation
        JOINT ElbowLeft
        {
          OFFSET -8.555795 -25.395267 -3.877719
          CHANNELS 3 Zrotation Xrotation Yrotation
          JOINT WristLeft
          {
            OFFSET -4.136758 -20.536132 -1.848060
            CHANNELS 3 Zrotation Xrotation Yrotation
            JOINT HandLeft
            {
              OFFSET -1.722377 -4.894429 -1.327476
              CHANNELS 3 Zrotation Xrotation Yrotation
              JOINT HandTipLeft
              {
                OFFSET -2.482900 -8.960972 0.539835
                CHANNELS 3 Zrotation Xrotation Yrotation
                End Site
                {
                  OFFSET 0 0 0
                }
              }
              JOINT ThumbLeft
              {
                OFFSET 4.275846 -0.751451 1.379503
                CHANNELS 3 Zrotation Xrotation Yrotation
                End Site
                {
                  OFFSET 0 0 0
                }
              }
            }
          }
        }
      }
      JOINT ShoulderRight
      {
        OFFSET -1.442902 -5.576005 -13.302815
        CHANNELS 3 Zrotation Xrotation Yrotation
        JOINT ElbowRight
        {
          OFFSET -7.607905 -27.007935 -7.740111
          CHANNELS 3 Zrotation Xrotation Yrotation
          JOINT WristRight
          {
            OFFSET -11.213138 -20.625196 -2.937284
            CHANNELS 3 Zrotation Xrotation Yrotation
            JOINT HandRight
            {
              OFFSET -2.774305 -7.474302 1.010596
              CHANNELS 3 Zrotation Xrotation Yrotation
              JOINT HandTipRight
              {
                OFFSET -2.709820 -7.691103 0.897835
                CHANNELS 3 Zrotation Xrotation Yrotation
                End Site
                {
                  OFFSET 0 0 0
                }
              }
              JOINT ThumbRight
              {
                OFFSET 3.190158 0.194138 -1.063181
                CHANNELS 3 Zrotation Xrotation Yrotation
                End Site
                {
                  OFFSET 0 0 0
                }
              }
            }
          }
        }
      }
    }
  }
  JOINT HipLeft
  {
    OFFSET -5.651611 0.689140 1.576922
    CHANNELS 3 Zrotation Xrotation Yrotation
    JOINT KneeLeft
    {
      OFFSET 3.024316 -38.456785 7.294656
      CHANNELS 3 Zrotation Xrotation Yrotation
      JOINT AnkleLeft
      {
        OFFSET -4.973711 -28.791104 -18.618604
        CHANNELS 3 Zrotation Xrotation Yrotation
        JOINT FootLeft
        {
          OFFSET -7.351609 -10.155028 -5.855196
          CHANNELS 3 Zrotation Xrotation Yrotation
          End Site
          {
            OFFSET 0 0 0
          }
        }
      }
    }
  }
  JOINT HipRight
  {
    OFFSET 5.456935 1.037727 -9.116761
    CHANNELS 3 Zrotation Xrotation Yrotation
    JOINT KneeRight
    {
      OFFSET -17.459521 -34.278674 -2.557327
      CHANNELS 3 Zrotation Xrotation Yrotation
      JOINT AnkleRight
      {
        OFFSET 0.925937 -39.240716 -1.749850
        CHANNELS 3 Zrotation Xrotation Yrotation
        JOINT FootRight
        {
          OFFSET -4.561908 -7.147384 -2.848267
          CHANNELS 3 Zrotation Xrotation Yrotation
          End Site
          {
            OFFSET 0 0 0
          }
        }
      }
    }
  }
}
MOTION
Frames: 13
Frame Time: 0.033333
8.628895 79.932763 295.049739 0.230619 2.287298 45.155683 0.095726 -2.927573 -45.079028 0.600653 -0.489672 0.173040 -9.428538 -4.230447 1.993985 0.000000 0.000000 0.000000 -2.973558 0.209813 -0.185383 -0.000000 0.000000 0.000000 7.048091 8.146672 -5.296979 -7.494500 -9.266520 4.191815 0.000000 0.000000 0.000000 0.000000 0.000000 0.000000 -0.388972 0.278533 -0.963655 -1.693974 0.171501 0.488450 -4.045836 0.971717 -0.594047 -2.423915 -2.988448 0.657862 0.000000 0.000000 0.000000 0.000000 0.000000 0.000000 15.032565 27.726416 -48.492744 10.743985 -31.767831 2.398320 35.968147 27.007579 -51.828102 0.000000 0.000000 0.000000 -5.488271 -2.376048 -43.501361 2.052689 3.217165 -1.862802 0.142448 -4.459448 2.842300 0.000000 0.000000 0.000000
7.689963 79.719188 294.046496 -0.597163 3.106244 40.441252 0.534482 -3.104034 -40.355820 0.872416 -0.578450 0.168989 -9.685744 -6.076049 1.928013 0.000000 0.000000 0.000000 -2.696193 -0.502264 -0.158597 -0.000000 0.000000 0.000000 9.672833 9.160330 -6.683182 -11.115774 -10.124888 4.516307 0.000000 0.000000 0.000000 0.000000 0.000000 0.000000 0.568254 -0.337637 -1.126550 -2.495846 0.420619 0.526158 -3.130756 0.952638 -0.451466 -4.453470 -3.463641 0.478862 0.000000 0.000000 0.000000 0.000000 0.000000 0.000000 14.435824 28.738145 -43.262226 10.026709 -33.744624 2.087659 42.586991 26.927227 -59.719117 0.000000 0.000000 0.000000 -4.936716 -3.924516 -38.964837 3.063701 2.328167 -1.867990 1.884237 2.395686 -2.365881 0.000000 0.000000 0.000000
6.081159 79.441492 293.592405 -1.926314 3.396269 34.986504 1.058071 -2.917937 -34.893071 1.459137 -0.633774 0.158593 -6.892817 -6.411724 1.031281 0.000000 0.000000 0.000000 -2.073888 -0.970198 -0.108366 -0.000000 0.000000 0.000000 11.992005 9.417029 -7.678076 -14.558764 -10.601795 4.625373 0.000000 0.000000 0.000000 0.000000 0.000000 0.000000 1.841731 -0.763195 -1.242142 -3.292196 0.541956 0.643019 -2.443988 1.078555 -0.416020 -7.705941 -3.830507 0.042720 0.000000 0.000000 0.000000 0.000000 0.000000 0.000000 12.056516 27.321443 -36.540031 8.830355 -32.377083 1.536693 43.235662 23.534344 -57.998696 0.000000 0.000000 0.000000 -2.356106 -5.212349 -33.905767 2.708168 1.309083 -1.367733 6.438422 12.347449 -11.522574 0.000000 0.000000 0.000000
4.031073 79.220205 293.530382 -3.586544 3.212405 29.564933 1.428509 -2.686950 -29.472699 1.932224 -0.639347 0.115117 -2.069541 -6.705677 -0.475427 0.000000 0.000000 0.000000 -0.913744 -0.934493 -0.028301 -0.000000 0.000000 0.000000 15.110042 8.571041 -8.491396 -18.794694 -9.923702 4.670340 0.000000 0.000000 0.000000 0.000000 0.000000 0.000000 3.815997 -0.788793 -1.369962 -4.480175 0.715763 0.835107 -1.328117 1.819163 -0.609762 -10.289515 -4.928587 -0.173114 0.000000 0.000000 0.000000 0.000000 0.000000 0.000000 11.848891 22.961740 -29.667556 4.630800 -28.969798 -0.239717 39.590385 16.456880 -47.758437 0.000000 0.000000 0.000000 1.714277 -5.431746 -29.086483 1.907337 -0.455883 -0.440191 14.100975 22.556575 -23.875341 0.000000 0.000000 0.000000
1.876426 79.037949 293.900378 -5.300682 2.378305 25.251671 1.641936 -2.331773 -25.197741 2.822777 -0.963603 0.099443 3.433212 -6.028646 -2.432165 0.000000 0.000000 0.000000 -0.000000 0.000000 0.000000 -0.000000 0.000000 0.000000 18.643944 6.012386 -8.564783 -23.177750 -8.124641 4.946930 0.000000 0.000000 0.000000 0.000000 0.000000 0.000000 5.593569 -0.000612 -1.626390 -5.736925 1.022335 0.993393 -0.909031 2.140425 -0.737400 -11.467665 -5.792002 -0.234023 0.000000 0.000000 0.000000 0.000000 0.000000 0.000000 13.432170 21.212865 -24.647734 1.702785 -27.255429 -1.383596 41.123636 4.600446 -38.222600 0.000000 0.000000 0.000000 6.545676 -4.149558 -25.683235 1.021477 -2.424243 0.802214 23.081308 29.223607 -36.651904 0.000000 0.000000 0.000000
-0.130717 78.928518 294.756342 -6.772992 1.091937 23.367026 1.662193 -2.022575 -23.394197 2.286270 -0.379667 -0.051311 10.280875 -6.255828 -4.455012 0.000000 0.000000 0.000000 2.158848 0.493541 0.105009 1.200068 4.683902 -1.099362 24.160338 -1.707325 -5.925144 -30.886126 -1.033986 4.973741 0.000000 0.000000 0.000000 0.000000 0.000000 0.000000 8.626610 0.442876 -1.816442 -6.759220 1.458898 1.020242 -0.905078 3.390761 -1.153255 -12.297210 -8.270794 -0.014854 0.000000 0.000000 0.000000 0.000000 0.000000 0.000000 16.563890 20.436478 -22.507724 -1.164138 -26.305057 -2.489883 44.752818 -10.650386 -22.938467 0.000000 0.000000 0.000000 11.299420 -1.685628 -25.246332 0.083068 -5.027893 2.365190 30.924325 32.544691 -47.172181 0.000000 0.000000 0.000000
-1.828922 78.919918 295.466126 -8.109053 -0.770110 23.720345 1.484102 -1.615673 -23.885878 2.204271 -0.087480 -0.152251 16.916712 -5.114236 -6.825518 0.000000 0.000000 0.000000 3.889574 1.755504 0.113676 0.904409 3.573691 -0.828692 29.350030 -4.103895 -5.822307 -37.859122 2.003819 5.751300 0.000000 0.000000 0.000000 0.000000 0.000000 0.000000 11.078962 1.163018 -2.001221 -7.599794 2.378893 0.904732 -1.657548 3.407177 -1.205923 -12.551404 -7.050230 -0.429408 0.000000 0.000000 0.000000 0.000000 0.000000 0.000000 21.202491 20.007563 -22.957959 -4.345381 -25.808950 -3.732936 51.321811 -23.854045 -4.882292 0.000000 0.000000 0.000000 15.911570 0.921761 -27.318965 -0.634685 -7.345953 3.876160 36.670232 32.971123 -54.263713 0.000000 0.000000 0.000000
-3.310524 79.129426 295.645539 -9.401022 -2.417820 25.690314 1.189010 -1.440327 -26.012473 2.021607 0.048165 -0.244719 21.762127 -6.005609 -8.759901 0.000000 0.000000 0.000000 5.665255 3.180765 0.071385 -0.500697 -4.971977 1.028580 31.064876 -7.043189 -5.604658 -43.248778 8.425314 7.874425 0.000000 0.000000 0.000000 0.000000 0.000000 0.000000 13.480718 1.760162 -2.154444 -8.411741 3.482526 0.781992 -2.118135 2.270745 -0.857380 -13.239391 -2.960071 -1.352694 0.000000 0.000000 0.000000 0.000000 0.000000 0.000000 27.462789 21.766652 -25.448199 -7.412792 -28.596277 -5.360748 64.313327 -34.234539 16.751898 0.000000 0.000000 0.000000 19.943013 2.106458 -30.615645 -1.202045 -8.758014 4.947838 42.979086 29.532400 -59.255415 0.000000 0.000000 0.000000
-4.163233 79.469618 295.141647 -10.246519 -3.764831 30.623698 0.725830 -1.330138 -31.085414 1.640211 0.080796 -0.317396 24.546250 -7.113098 -9.904615 0.000000 0.000000 0.000000 7.273078 4.502078 -0.008555 -1.995583 -14.149708 2.817790 33.899519 -14.601065 -2.976212 -51.071034 12.915111 14.207292 0.000000 0.000000 0.000000 0.000000 0.000000 0.000000 15.645053 1.916768 -2.210011 -9.189056 4.718549 0.709816 -2.216846 2.602694 -1.016816 -14.015215 0.022639 -2.126462 0.000000 0.000000 0.000000 0.000000 0.000000 0.000000 33.244862 23.298887 -31.203527 -8.291918 -32.556096 -6.312219 66.964820 -36.518473 25.770439 0.000000 0.000000 0.000000 22.860761 0.556399 -35.771418 -2.085517 -8.855222 5.184707 42.610496 29.169501 -59.191148 0.000000 0.000000 0.000000
-4.770923 79.818582 293.311601 -11.527817 -4.515822 35.311053 0.420618 -1.713047 -35.938174 1.142003 0.092141 -0.382241 24.784626 -9.607391 -9.893649 0.000000 0.000000 0.000000 9.006685 5.639846 -0.103319 -6.374753 -30.847769 5.250012 35.501766 -19.694132 -4.296470 -57.930934 15.555834 23.568788 0.000000 0.000000 0.000000 0.000000 0.000000 0.000000 17.497147 1.843812 -2.089245 -9.507880 5.737577 0.666472 -2.574225 1.047070 -0.609943 -12.157255 3.544589 -2.382627 0.000000 0.000000 0.000000 0.000000 0.000000 0.000000 37.367748 23.795833 -36.318932 -7.125954 -35.836280 -6.217050 61.764803 -35.738087 24.102658 0.000000 0.000000 0.000000 25.032678 -3.484187 -39.357205 -3.648549 -7.665044 4.538210 36.534910 30.765632 -54.241805 0.000000 0.000000 0.000000
-4.547960 79.879646 290.935410 -12.353312 -5.239565 39.202554 0.288873 -1.926919 -39.967330 0.431026 0.010568 -0.420150 21.952200 -12.974213 -8.756079 0.000000 0.000000 0.000000 10.423947 6.613307 -0.212642 -19.089109 -61.843092 4.099769 30.952851 -23.311216 -8.771645 -52.175723 0.299851 35.985828 0.000000 0.000000 0.000000 0.000000 0.000000 0.000000 18.557267 1.611891 -1.783502 -9.281834 6.499141 0.617996 -3.140596 0.215604 -0.519011 -12.129306 5.760254 -2.662434 0.000000 0.000000 0.000000 0.000000 0.000000 0.000000 41.820551 20.824438 -39.432190 -9.162730 -31.193251 -8.058350 46.950408 -30.291879 12.657953 0.000000 0.000000 0.000000 25.558301 -6.872252 -42.052205 -4.609973 -6.352696 3.703250 28.221474 35.590192 -49.488245 0.000000 0.000000 0.000000
-4.832316 79.868454 288.806050 -13.702714 -6.395765 40.885960 0.398589 -1.698835 -41.842848 0.478653 0.160603 -0.466054 19.765476 -17.159046 -8.127651 0.000000 0.000000 0.000000 12.304020 9.100166 -1.067412 -164.081089 -76.561840 -127.684722 19.263163 -18.619406 -1.827998 -20.462426 -17.806837 12.597406 0.000000 0.000000 0.000000 0.000000 0.000000 0.000000 19.085165 1.005397 -1.218459 -8.337685 7.741418 0.158333 -4.797834 -1.824610 -0.107253 -11.210900 8.687339 -2.862081 0.000000 0.000000 0.000000 0.000000 0.000000 0.000000 45.570043 20.051463 -40.934944 -10.470329 -33.610684 -8.718214 22.272885 -14.848069 -0.642605 0.000000 0.000000 0.000000 28.232408 -9.563853 -43.147703 -6.759940 -6.131126 3.390024 13.164732 41.302972 -39.187802 0.000000 0.000000 0.000000
-4.749178 79.740091 286.738226 -14.960228 -7.809667 42.891921 0.370360 -1.693319 -44.111722 0.679605 0.150225 -0.515393 17.658403 -19.979047 -7.951394 0.000000 0.000000 0.000000 13.520365 10.244345 -1.270114 179.323242 -57.976639 -133.893328 13.651283 -6.149146 18.135549 -19.869825 -12.105858 -21.731753 0.000000 0.000000 0.000000 0.000000 0.000000 0.000000 18.728010 1.117053 -0.637228 -7.027652 8.492187 -0.222862 -7.163789 -2.800765 -0.304325 -10.145359 9.546523 -2.616312 0.000000 0.000000 0.000000 0.000000 0.000000 0.000000 49.409135 19.959095 -43.101355 -11.778150 -42.330718 -8.798620 0.007502 12.351149 -7.009867 0.000000 0.000000 0.000000 30.140258 -12.601479 -44.261175 -8.943117 -5.411116 2.742943 -6.468817 43.828003 -23.787724 0.000000 0.000000 0.000000
